<svg xmlns="http://www.w3.org/2000/svg" xmlns:xlink="http://www.w3.org/1999/xlink" viewBox="0 0 86 100"><defs><linearGradient id="a" x1="43" y1="100" x2="43" gradientUnits="userSpaceOnUse"><stop offset="0" stop-color="#b5afbf"/><stop offset="1" stop-color="#dbd1d6"/></linearGradient><linearGradient id="b" x1="16" y1="87" x2="16" y2="73" gradientUnits="userSpaceOnUse"><stop offset="0" stop-color="#a99ea7"/><stop offset=".6" stop-color="#c8b8c1"/></linearGradient><linearGradient id="c" x1="14" y1="75" x2="14" y2="79" xlink:href="#linear-gradient-2"/><linearGradient id="d" x1="34" x2="34" xlink:href="#linear-gradient-2"/><linearGradient id="e" x1="36" y1="79" x2="36" y2="83" xlink:href="#linear-gradient-2"/></defs><rect fill="url(#a)" width="86" height="100" rx="13" ry="13"/><rect fill="#fef7f9" x="1" y="1" width="84" height="94" rx="12" ry="12"/><path fill="#fff" d="M73 1H13A12 12 0 0 0 1 13v1A12 12 0 0 1 13 2h60a12 12 0 0 1 12 12v-1A12 12 0 0 0 73 1z"/><rect fill="#7e628f" x="9" y="9" width="68" height="58" rx="4" ry="4"/><path fill="#675077" d="M73 9H13a4 4 0 0 0-4 4v1a4 4 0 0 1 4-4h60a4 4 0 0 1 4 4v-1a4 4 0 0 0-4-4z"/><rect fill="#d84b9d" x="51" y="73" width="26" height="14" rx="4" ry="4"/><rect fill="#f159b0" x="51" y="73" width="26" height="12" rx="4" ry="4"/><path fill="#fc7acb" d="M73 84H55a4 4 0 0 1-4-4v1a4 4 0 0 0 4 4h18a4 4 0 0 0 4-4v-1a4 4 0 0 1-4 4z"/><circle fill="url(#b)" cx="16" cy="80" r="7"/><circle fill="#dec7d4" cx="16" cy="79" r="6"/><path fill="#f9edf4" d="M16 74a6 6 0 0 1 6 5.5V79a6 6 0 0 0-12 0v.5a6 6 0 0 1 6-5.5z"/><circle fill="url(#c)" cx="14" cy="77" r="2"/><circle fill="url(#d)" cx="34" cy="80" r="7"/><circle fill="#dec7d4" cx="34" cy="79" r="6"/><path fill="#f9edf4" d="M34 74a6 6 0 0 1 6 5.5V79a6 6 0 0 0-12 0v.5a6 6 0 0 1 6-5.5z"/><circle fill="url(#e)" cx="36" cy="81" r="2"/><path fill="#9072a0" d="M27 60.8A11.8 11.8 0 1 1 38.8 49 11.8 11.8 0 0 1 27 60.8zm0-20a8.2 8.2 0 1 0 8.2 8.2 8.2 8.2 0 0 0-8.2-8.2z"/><path fill="#fe5bb7" d="M37 51a2 2 0 0 1-2-2 8 8 0 0 0-8-8 2 2 0 0 1 0-4 12 12 0 0 1 12 12 2 2 0 0 1-2 2z"/><path fill="#9072a0" d="M59 60.8A11.8 11.8 0 1 1 70.8 49 11.8 11.8 0 0 1 59 60.8zm0-20a8.2 8.2 0 1 0 8.2 8.2 8.2 8.2 0 0 0-8.2-8.2z"/><path fill="#5bd3e8" d="M59 61a12 12 0 0 1-12-12 2 2 0 0 1 4 0 8 8 0 1 0 8-8 2 2 0 0 1 0-4 12 12 0 0 1 0 24z"/><path fill="#ffae43" d="M70 17.5l-11 11-4-5-7.8 8.8-11-21.2L26 25.7l-4-4-8 10.7-5-8V28l5 7.8 8-11.3 4 4L36 15l10.8 20.8 8.2-9.2 4 5 11-11 7 8.5v-3l-7-8.4z"/></svg>
