<svg id="Layer_1" data-name="Layer 1" xmlns="http://www.w3.org/2000/svg" xmlns:xlink="http://www.w3.org/1999/xlink" viewBox="0 0 86 100"><defs><style>.cls-1{fill:url(#linear-gradient);}.cls-2{fill:#fef7f9;}.cls-3{fill:#fff;}.cls-4{fill:#7e628f;}.cls-5{fill:#675077;}.cls-6{fill:#d84b9d;}.cls-7{fill:#f159b0;}.cls-8{fill:#fc7acb;}.cls-9{fill:url(#linear-gradient-2);}.cls-10{fill:#dec7d4;}.cls-11{fill:#f9edf4;}.cls-12{fill:url(#linear-gradient-3);}.cls-13{fill:url(#linear-gradient-4);}.cls-14{fill:url(#linear-gradient-5);}.cls-15{fill:#9072a0;}.cls-16{fill:#fe5bb7;}.cls-17{fill:#5bd3e8;}.cls-18{fill:#ffae43;}</style><linearGradient id="linear-gradient" x1="43" y1="100" x2="43" gradientUnits="userSpaceOnUse"><stop offset="0" stop-color="#b5afbf"/><stop offset="1" stop-color="#dbd1d6"/></linearGradient><linearGradient id="linear-gradient-2" x1="16" y1="87" x2="16" y2="73" gradientUnits="userSpaceOnUse"><stop offset="0" stop-color="#a99ea7"/><stop offset="0.6" stop-color="#c8b8c1"/></linearGradient><linearGradient id="linear-gradient-3" x1="14" y1="75" x2="14" y2="79" xlink:href="#linear-gradient-2"/><linearGradient id="linear-gradient-4" x1="34" x2="34" xlink:href="#linear-gradient-2"/><linearGradient id="linear-gradient-5" x1="36" y1="79" x2="36" y2="83" xlink:href="#linear-gradient-2"/></defs><title>Artboard 1</title><rect class="cls-1" width="86" height="100" rx="13" ry="13"/><rect class="cls-2" x="1" y="1" width="84" height="94" rx="12" ry="12"/><path class="cls-3" d="M73,1H13A12,12,0,0,0,1,13v1A12,12,0,0,1,13,2H73A12,12,0,0,1,85,14V13A12,12,0,0,0,73,1Z"/><rect class="cls-4" x="9" y="9" width="68" height="58" rx="4" ry="4"/><path class="cls-5" d="M73,9H13a4,4,0,0,0-4,4v1a4,4,0,0,1,4-4H73a4,4,0,0,1,4,4V13A4,4,0,0,0,73,9Z"/><rect class="cls-6" x="51" y="73" width="26" height="14" rx="4" ry="4"/><rect class="cls-7" x="51" y="73" width="26" height="12" rx="4" ry="4"/><path class="cls-8" d="M73,84H55a4,4,0,0,1-4-4v1a4,4,0,0,0,4,4H73a4,4,0,0,0,4-4V80A4,4,0,0,1,73,84Z"/><circle class="cls-9" cx="16" cy="80" r="7"/><circle class="cls-10" cx="16" cy="79" r="6"/><path class="cls-11" d="M16,74a6,6,0,0,1,6,5.5c0-.17,0-.33,0-.5a6,6,0,0,0-12,0c0,.17,0,.33,0,.5A6,6,0,0,1,16,74Z"/><circle class="cls-12" cx="14" cy="77" r="2"/><circle class="cls-13" cx="34" cy="80" r="7"/><circle class="cls-10" cx="34" cy="79" r="6"/><path class="cls-11" d="M34,74a6,6,0,0,1,6,5.5c0-.17,0-.33,0-.5a6,6,0,0,0-12,0c0,.17,0,.33,0,.5A6,6,0,0,1,34,74Z"/><circle class="cls-14" cx="36" cy="81" r="2"/><path class="cls-15" d="M27,60.82A11.82,11.82,0,1,1,38.82,49,11.83,11.83,0,0,1,27,60.82Zm0-20A8.18,8.18,0,1,0,35.18,49,8.19,8.19,0,0,0,27,40.82Z"/><path class="cls-16" d="M37,51a2,2,0,0,1-2-2,8,8,0,0,0-8-8,2,2,0,0,1,0-4A12,12,0,0,1,39,49,2,2,0,0,1,37,51Z"/><path class="cls-15" d="M59,60.82A11.82,11.82,0,1,1,70.82,49,11.83,11.83,0,0,1,59,60.82Zm0-20A8.18,8.18,0,1,0,67.18,49,8.19,8.19,0,0,0,59,40.82Z"/><path class="cls-17" d="M59,61A12,12,0,0,1,47,49a2,2,0,0,1,4,0,8,8,0,1,0,8-8,2,2,0,0,1,0-4,12,12,0,0,1,0,24Z"/><polygon class="cls-18" points="70.07 17.51 59.08 28.5 55.04 23.45 47.21 32.25 36.13 11.1 25.87 25.46 21.88 21.46 14.05 32.22 9 24.28 9 28.01 13.95 35.78 22.12 24.54 26.13 28.54 35.87 14.9 46.79 35.75 54.96 26.55 58.92 31.5 69.93 20.49 77 29.14 77 25.98 70.07 17.51"/></svg>
